HIERARCHY
ROOT Hips
{
	OFFSET 0.000000 0.220767 0.000000
	CHANNELS 6 Xposition Yposition Zposition Zrotation Yrotation Xrotation 
	JOINT Bip01_Spine
	{
		OFFSET -0.001079 0.058795 0.012063
		CHANNELS 3 Zrotation Yrotation Xrotation
		JOINT Bip01_Pelvis
		{
			OFFSET 0.001176 0.002639 -0.013141
			CHANNELS 3 Zrotation Yrotation Xrotation
			JOINT Bip01_Tail
			{
				OFFSET 0.033393 -0.000001 -0.373196
				CHANNELS 3 Zrotation Yrotation Xrotation
				JOINT Bip01_Tail1
				{
					OFFSET 0.028925 0.118737 -0.323262
					CHANNELS 3 Zrotation Yrotation Xrotation
					JOINT Bip01_Tail2
					{
						OFFSET 0.014110 0.147763 -0.157689
						CHANNELS 3 Zrotation Yrotation Xrotation
						JOINT Bip01_Tail3
						{
							OFFSET 0.006350 0.219007 -0.070961
							CHANNELS 3 Zrotation Yrotation Xrotation
							JOINT Bip01_Tail4
							{
								OFFSET -0.002116 0.200536 0.023652
								CHANNELS 3 Zrotation Yrotation Xrotation
								JOINT Bip01_Tail5
								{
									OFFSET -0.016930 0.192622 0.189225
									CHANNELS 3 Zrotation Yrotation Xrotation
									JOINT Bip01_Tail6
									{
										OFFSET -0.031276 -0.047494 0.349542
										CHANNELS 3 Zrotation Yrotation Xrotation
										End Site #name: Bip01_TailNub
										{
											OFFSET -0.002354 -0.432737 0.026283
										}
									}
								}
							}
						}
					}
				}
			}
		}
		End Site #name: Bip01_SpineR
		{
			OFFSET -0.079583 -0.010550 0.334166
		}
		End Site #name: Bip01_SpineL
		{
			OFFSET 0.018992 -0.010550 0.342986
		}
		JOINT Bip01_R_Thigh_1
		{
			OFFSET -0.112529 -0.107732 0.124644
			CHANNELS 3 Zrotation Yrotation Xrotation
			JOINT Bip01_R_Thigh1_1
			{
				OFFSET -0.121520 -0.019259 0.002813
				CHANNELS 3 Zrotation Yrotation Xrotation
				JOINT Bip01_R_Calf_1
				{
					OFFSET -0.158346 0.112068 -0.029973
					CHANNELS 3 Zrotation Yrotation Xrotation
					JOINT Bip01_R_Foot_1
					{
						OFFSET -0.122351 -0.100821 0.053425
						CHANNELS 3 Zrotation Yrotation Xrotation
						End Site #name: Bip01_R_FootNub_1
						{
							OFFSET -0.039686 -0.141775 0.087999
						}
					}
				}
			}
		}
		JOINT Bip01_R_Clavicle
		{
			OFFSET -0.122325 -0.086201 0.205233
			CHANNELS 3 Zrotation Yrotation Xrotation
			JOINT Bip01_R_UpperArm
			{
				OFFSET -0.119243 -0.009831 0.107776
				CHANNELS 3 Zrotation Yrotation Xrotation
				JOINT Bip01_R_Forearm
				{
					OFFSET -0.209812 0.103016 -0.034414
					CHANNELS 3 Zrotation Yrotation Xrotation
					JOINT Bip01_R_Hand
					{
						OFFSET -0.065239 -0.034382 0.182545
						CHANNELS 3 Zrotation Yrotation Xrotation
						End Site #name: Bip01_R_Finger0
						{
							OFFSET -0.009292 -0.052120 0.228434
						}
					}
				}
			}
		}
		JOINT Bip01_L_Clavicle
		{
			OFFSET 0.083944 -0.086202 0.223689
			CHANNELS 3 Zrotation Yrotation Xrotation
			JOINT Bip01_L_UpperArm
			{
				OFFSET 0.098271 -0.000001 0.127570
				CHANNELS 3 Zrotation Yrotation Xrotation
				JOINT Bip01_L_Forearm
				{
					OFFSET 0.217359 0.085453 0.035644
					CHANNELS 3 Zrotation Yrotation Xrotation
					JOINT Bip01_L_Hand
					{
						OFFSET 0.028053 -0.005060 0.194804
						CHANNELS 3 Zrotation Yrotation Xrotation
						End Site #name: Bip01_L_Finger0
						{
							OFFSET -0.038757 -0.064929 0.221962
						}
					}
				}
			}
		}
		JOINT Bip01_L_Thigh_4
		{
			OFFSET 0.182356 -0.107732 -0.153545
			CHANNELS 3 Zrotation Yrotation Xrotation
			JOINT Bip01_L_Thigh1_4
			{
				OFFSET 0.081186 -0.002220 -0.138244
				CHANNELS 3 Zrotation Yrotation Xrotation
				JOINT Bip01_L_Calf
				{
					OFFSET 0.071957 0.156636 -0.213102
					CHANNELS 3 Zrotation Yrotation Xrotation
					JOINT Bip01_L_Foot_4
					{
						OFFSET 0.122050 -0.102099 -0.113845
						CHANNELS 3 Zrotation Yrotation Xrotation
						End Site #name: Bip01_L_FootNub_4
						{
							OFFSET 0.080595 -0.172240 -0.052699
						}
					}
				}
			}
		}
		JOINT Bip01_L_Thigh_3
		{
			OFFSET 0.146084 -0.107732 -0.039202
			CHANNELS 3 Zrotation Yrotation Xrotation
			JOINT Bip01_L_Thigh1_3
			{
				OFFSET 0.116425 -0.017403 -0.077441
				CHANNELS 3 Zrotation Yrotation Xrotation
				JOINT Bip01_L_Calf_3
				{
					OFFSET 0.161961 0.138885 -0.152869
					CHANNELS 3 Zrotation Yrotation Xrotation
					JOINT Bip01_L_Foot_3
					{
						OFFSET 0.137729 -0.105097 -0.037457
						CHANNELS 3 Zrotation Yrotation Xrotation
						End Site #name: Bip01_L_FootNub_3
						{
							OFFSET 0.105029 -0.160237 0.007817
						}
					}
				}
			}
		}
		JOINT Bip01_L_Thigh_2
		{
			OFFSET 0.097046 -0.107732 0.048380
			CHANNELS 3 Zrotation Yrotation Xrotation
			JOINT Bip01_L_Thigh1_2
			{
				OFFSET 0.139204 -0.011609 -0.018495
				CHANNELS 3 Zrotation Yrotation Xrotation
				JOINT Bip01_L_Calf_2
				{
					OFFSET 0.182131 0.145356 -0.070983
					CHANNELS 3 Zrotation Yrotation Xrotation
					JOINT Bip01_L_Foot_2
					{
						OFFSET 0.134455 -0.111918 0.027628
						CHANNELS 3 Zrotation Yrotation Xrotation
						End Site #name: Bip01_L_FootNub_2
						{
							OFFSET 0.079511 -0.166396 0.042703
						}
					}
				}
			}
		}
		JOINT Bip01_L_Thigh_1
		{
			OFFSET 0.088612 -0.107733 0.142641
			CHANNELS 3 Zrotation Yrotation Xrotation
			JOINT Bip01_L_Thigh1_1
			{
				OFFSET 0.118450 -0.010281 0.031779
				CHANNELS 3 Zrotation Yrotation Xrotation
				JOINT Bip01_L_Calf_1
				{
					OFFSET 0.165577 0.100393 -0.000888
					CHANNELS 3 Zrotation Yrotation Xrotation
					JOINT Bip01_L_Foot_1
					{
						OFFSET 0.108766 -0.113488 0.063231
						CHANNELS 3 Zrotation Yrotation Xrotation
						End Site #name: Bip01_L_FootNub_1
						{
							OFFSET 0.033675 -0.148454 0.087814
						}
					}
				}
			}
		}
		JOINT Bip01_R_Thigh_2
		{
			OFFSET -0.104093 -0.107732 0.030383
			CHANNELS 3 Zrotation Yrotation Xrotation
			JOINT Bip01_R_Thigh1_2
			{
				OFFSET -0.134354 -0.011576 -0.040861
				CHANNELS 3 Zrotation Yrotation Xrotation
				JOINT Bip01_R_Calf_2
				{
					OFFSET -0.164191 0.145223 -0.106156
					CHANNELS 3 Zrotation Yrotation Xrotation
					JOINT Bip01_R_Foot_2
					{
						OFFSET -0.132857 -0.116421 0.010547
						CHANNELS 3 Zrotation Yrotation Xrotation
						End Site #name: Bip01_R_FootNub_2
						{
							OFFSET -0.079076 -0.169084 0.026562
						}
					}
				}
			}
		}
		JOINT Bip01_R_Thigh_3
		{
			OFFSET -0.136803 -0.107731 -0.064514
			CHANNELS 3 Zrotation Yrotation Xrotation
			JOINT Bip01_R_Thigh1_3
			{
				OFFSET -0.105223 -0.006819 -0.093469
				CHANNELS 3 Zrotation Yrotation Xrotation
				JOINT Bip01_R_Calf_3
				{
					OFFSET -0.129084 0.130171 -0.188290
					CHANNELS 3 Zrotation Yrotation Xrotation
					JOINT Bip01_R_Foot_3
					{
						OFFSET -0.134634 -0.101699 -0.052980
						CHANNELS 3 Zrotation Yrotation Xrotation
						End Site #name: Bip01_R_FootNub_3
						{
							OFFSET -0.098925 -0.164779 -0.013534
						}
					}
				}
			}
		}
		JOINT Bip01_R_Thigh_4
		{
			OFFSET -0.152202 -0.107730 -0.183480
			CHANNELS 3 Zrotation Yrotation Xrotation
			JOINT Bip01_R_Thigh1_4
			{
				OFFSET -0.054068 -0.012181 -0.150451
				CHANNELS 3 Zrotation Yrotation Xrotation
				JOINT Bip01_R_Calf_4
				{
					OFFSET -0.037189 0.167437 -0.208757
					CHANNELS 3 Zrotation Yrotation Xrotation
					JOINT Bip01_R_Foot_4
					{
						OFFSET -0.099485 -0.097520 -0.140841
						CHANNELS 3 Zrotation Yrotation Xrotation
						End Site #name: Bip01_R_FootNub_4
						{
							OFFSET -0.074606 -0.168926 -0.065557
						}
					}
				}
			}
		}
	}
}
MOTION
Frames: 5
Frame Time: 0.041667
-0.099315 0.147757 0.752562 0.823658 -3.654739 -0.100065 -1.868141 1.228056 -1.382716 14.469613 1.921851 -7.908962 12.558020 -6.311932 -13.611146 7.936315 -7.570041 -1.554591 11.203946 -16.695389 -1.612945 -5.899935 -7.589620 11.853675 -19.718543 2.143540 -3.285431 -22.489333 25.236427 -13.181936 31.260952 49.119468 -9.742665 0.232938 14.869147 137.685404 80.231478 4.676443 -22.344748 -119.244025 -13.915043 -52.869611 -37.931464 -14.473636 -25.340531 -70.027508 42.378669 62.578187 88.797530 -30.260656 17.005489 -62.815530 -9.901906 -62.799168 30.938975 12.768884 -38.084917 -18.321626 -4.219472 -23.310123 55.660063 -12.029643 -28.969417 -25.572194 40.225874 34.029223 -66.296212 29.166497 3.774786 -96.998651 43.670325 36.493759 -14.257846 19.737198 -51.958837 47.444604 -51.628328 23.127109 22.299025 -9.882329 1.902532 57.334400 56.468056 -126.750874 -41.658823 -31.105637 -47.937439 164.591774 -40.631335 -0.510364 59.296918 -1.107563 9.274447 23.292715 -7.668008 -131.184628 -73.189189 -46.364108 8.593248 -171.734089 3.109673 49.460159 59.093759 14.203875 7.074643 1.414112 -28.113995 -138.104506 -73.507703 -32.656927 30.465026 178.324775 28.501752 60.526210 57.205704 28.052051 22.277435 0.639636 -44.420479 136.833230 62.872345 4.059690 -34.697995 -149.049454 25.107900 -52.100037 -37.568697 4.724209 -23.172949 41.554576 -55.818917 78.707057 32.880854 -7.474708 -36.595522 -97.626940 68.723368 -16.084640 -42.430642 14.324622 -12.624263 44.724563 -23.839148 39.971705 15.656928 -20.739303 -23.841522 28.032154 68.887645 52.685907 -39.555968 26.573100 -11.383430 
-0.101798 0.147757 0.771374 0.823658 -3.654739 -0.100065 -1.726726 1.227346 -1.442546 14.329111 1.886031 -7.840665 11.996267 -6.148258 -13.453456 8.015077 -7.572625 -1.550906 11.251624 -16.624203 -1.595839 -5.811970 -7.664490 11.879170 -19.712632 2.050709 -3.244130 -22.489333 25.236427 -13.181936 31.260952 49.119468 -9.742665 1.725916 17.592272 139.292909 80.298105 4.700178 -22.270222 -118.013541 -14.175832 -51.476308 -37.778925 -14.698483 -23.765740 -69.620760 42.403175 62.686303 88.788366 -30.231178 16.928778 -62.552928 -10.000681 -62.613307 30.938975 12.768884 -38.084917 -19.354801 -4.346029 -23.896083 55.655652 -11.990367 -28.875776 -25.572194 40.225874 34.029223 -66.296212 29.166497 3.774786 -95.249266 46.284171 36.772003 -13.956596 19.172868 -51.552581 47.834463 -54.734400 20.592891 23.362225 -11.223572 -0.254567 55.566028 56.219869 -128.395687 -41.580990 -31.005786 -47.915647 165.332522 -40.730182 -0.984240 59.650665 -1.160183 9.201526 23.587643 -5.556383 -129.666724 -72.983356 -46.317245 8.418617 -171.121985 2.810853 49.391020 59.544581 14.234806 7.141026 2.108169 -25.853432 -136.674986 -73.388587 -32.645947 30.346180 179.767962 27.690313 61.123645 58.331565 28.415987 22.688069 -1.480565 -41.361418 137.488414 62.650078 4.203313 -34.432876 -150.296720 24.835127 -54.102108 -38.221941 4.870786 -24.251929 44.075149 -56.430012 76.277269 33.008057 -7.725027 -36.885411 -94.093275 68.130681 -11.777467 -41.531699 13.957018 -11.693300 45.598560 -24.146008 38.813857 15.631566 -21.379711 -23.803126 26.942847 67.503868 52.628872 -38.729522 26.151176 -10.309890 
-0.104281 0.147757 0.790186 0.823658 -3.654739 -0.100065 -1.585357 1.227583 -1.502452 14.188692 1.850292 -7.771276 11.435043 -5.982551 -13.298435 8.093829 -7.575246 -1.547084 11.299271 -16.552995 -1.578806 -5.724030 -7.739383 11.904568 -19.706824 1.957912 -3.202745 -22.489332 25.236427 -13.181936 31.260952 49.119468 -9.742665 3.444717 20.322818 140.956707 80.368034 4.725029 -22.191903 -116.624145 -14.490610 -49.904120 -37.606942 -14.942295 -21.979322 -70.061965 42.376742 62.569220 88.798346 -30.263164 17.012068 -62.838008 -9.893500 -62.815124 30.938975 12.768884 -38.084917 -18.233054 -4.208904 -23.260241 55.651401 -11.951825 -28.783669 -25.572194 40.225874 34.029223 -66.296212 29.166497 3.774786 -93.632406 48.580259 37.109041 -13.644494 18.556839 -51.125648 48.338529 -57.247764 18.342289 24.272081 -12.294106 -2.021196 53.739716 55.834117 -130.212866 -41.494354 -30.895435 -47.889588 166.145596 -40.834687 -1.506391 60.036298 -1.218152 9.121828 23.775274 -3.566027 -128.227047 -72.831147 -46.282440 8.290276 -170.667406 2.589674 49.337329 59.879473 14.257444 7.190488 2.714634 -23.531825 -135.288024 -73.267029 -32.634631 30.225158 -178.954505 26.935686 61.627115 59.342285 28.736726 23.041387 -3.151302 -38.314958 137.693257 62.463536 4.324968 -34.210202 -151.309991 24.578652 -55.708883 -38.750773 4.980036 -25.123379 46.795038 -56.875095 73.661342 33.138119 -7.981583 -37.181012 -90.508362 67.408575 -7.372927 -40.566146 13.546745 -10.709649 46.425484 -24.293227 37.712802 15.605851 -21.975212 -23.761238 26.007252 66.180190 52.660241 -37.940623 25.735233 -9.298056 
-0.106763 0.147757 0.808998 0.823658 -3.654739 -0.100065 -1.443974 1.226668 -1.562266 14.048094 1.815124 -7.702726 10.874485 -5.814872 -13.146115 8.172593 -7.577776 -1.543399 11.346991 -16.481786 -1.561648 -5.636096 -7.814292 11.929984 -19.701087 1.865116 -3.161364 -22.489332 25.236427 -13.181936 31.260951 49.119468 -9.742665 5.462584 22.943943 142.886360 80.440389 4.750580 -22.110991 -115.076698 -14.859720 -48.169737 -37.406492 -15.194560 -19.997800 -70.506880 42.347204 62.454007 88.808228 -30.295589 17.096218 -63.126261 -9.786133 -63.019400 30.938975 12.768884 -38.084917 -17.093537 -4.078479 -22.622573 55.647139 -11.912803 -28.690737 -25.572194 40.225874 34.029223 -66.296212 29.166497 3.774786 -91.945703 50.831367 37.557008 -13.331371 17.921486 -50.692762 49.031396 -59.657070 15.972226 25.181948 -13.305865 -3.741263 51.879362 55.504750 -131.981210 -41.418011 -30.797811 -47.866746 166.863508 -40.922116 -1.968274 60.376037 -1.268114 9.050451 23.969907 -1.496896 -126.732023 -72.700940 -46.252278 8.180124 -170.278452 2.400444 49.290087 60.166625 14.276635 7.233014 3.184512 -21.275913 -133.787791 -73.154027 -32.623819 30.112528 -177.880887 26.277635 62.032439 60.203570 29.004389 23.335595 -4.574726 -35.079528 137.606666 62.298703 4.433295 -34.013310 -152.208675 24.319367 -57.132137 -39.224429 5.070809 -25.902496 49.568469 -57.134463 70.999667 33.271185 -8.242202 -37.482136 -87.109423 66.569081 -3.139397 -39.584971 13.112379 -9.715653 47.273864 -24.361510 36.572580 15.578889 -22.591894 -23.714296 25.091943 64.788618 52.751586 -37.116362 25.283877 -8.247686 
-0.109247 0.147757 0.827816 0.823658 -3.654739 -0.100065 -1.302579 1.226901 -1.622117 13.907550 1.780040 -7.633083 10.314489 -5.645261 -12.996459 8.251333 -7.580358 -1.539582 11.394774 -16.410524 -1.544555 -5.548298 -7.889194 11.955379 -19.695454 1.772354 -3.119898 -22.489332 25.236427 -13.181936 31.260951 49.119468 -9.742665 7.822591 25.536751 145.079842 80.514766 4.776720 -22.027840 -113.341311 -15.303671 -46.228898 -37.178498 -15.463750 -17.764497 -70.951082 42.315575 62.341771 88.818053 -30.328202 17.180408 -63.414717 -9.679907 -63.224125 30.938975 12.768884 -38.084917 -15.947716 -3.955920 -21.989652 55.642956 -11.873883 -28.597906 -25.572194 40.225874 34.029223 -66.296212 29.166497 3.774786 -90.209207 52.997964 38.111912 -13.010285 17.249347 -50.243630 49.881215 -61.857383 13.575937 26.045386 -14.215564 -5.332200 49.953382 55.131241 -133.821837 -41.342368 -30.700651 -47.844315 167.578084 -41.003861 -2.428520 60.713062 -1.317630 8.979413 24.123825 0.602431 -125.224739 -72.605944 -46.230059 8.099330 -169.995440 2.263403 49.255530 60.375180 14.290435 7.263954 3.560883 -18.961885 -132.238621 -73.054514 -32.614050 30.013301 -176.945955 25.695123 62.377033 60.963204 29.238158 23.598001 -5.757289 -31.699841 137.223690 62.160799 4.524546 -33.848459 -152.949976 24.086425 -58.297898 -39.615403 5.140730 -26.544671 52.432917 -57.219582 68.257107 33.401455 -8.501931 -37.780449 -83.746561 65.591732 1.098121 -38.540217 12.632886 -8.677400 48.135727 -24.326759 35.403313 15.552743 -23.220011 -23.665184 24.200080 63.361559 52.891244 -36.283290 24.805638 -7.183287 
